<svg width="43" height="43" viewBox="0 0 43 43" fill="none" xmlns="http://www.w3.org/2000/svg">
<rect x="0.5" y="0.5" width="42" height="42" rx="9.5" fill="#EDEDED" stroke="#B0B0B0"/>
<rect width="24" height="24" transform="translate(9 10)" fill="#EDEDED"/>
<path d="M22.4101 30.79L21.0001 31.7C19.6901 32.51 17.8701 31.6 17.8701 29.98V24.63C17.8701 23.92 17.4701 23.01 17.0601 22.51L13.2201 18.47C12.7101 17.96 12.3101 17.06 12.3101 16.45V14.13C12.3101 12.92 13.2201 12.01 14.3301 12.01H27.6701C28.7801 12.01 29.6901 12.92 29.6901 14.03V16.25C29.6901 17.06 29.1801 18.07 28.6801 18.57" stroke="#B0B0B0" stroke-width="1.5" stroke-miterlimit="10" stroke-linecap="round" stroke-linejoin="round"/>
<path d="M26.0799 21.89L22.5399 25.43C22.3999 25.57 22.2699 25.83 22.2399 26.02L22.0499 27.37C21.9799 27.86 22.3199 28.2 22.8099 28.13L24.1599 27.94C24.3499 27.91 24.6199 27.78 24.7499 27.64L28.2899 24.1C28.8999 23.49 29.1899 22.78 28.2899 21.88C27.3999 20.99 26.6899 21.28 26.0799 21.89Z" stroke="#B0B0B0" stroke-width="1.5" stroke-miterlimit="10" stroke-linecap="round" stroke-linejoin="round"/>
<path d="M25.5801 22.39C25.8801 23.47 26.7201 24.31 27.8001 24.61" stroke="#B0B0B0" stroke-width="1.5" stroke-miterlimit="10" stroke-linecap="round" stroke-linejoin="round"/>
</svg>
